# This file uses centimeters as units for non-parametric coordinates.

mtllib SM_Mur.mtl
g default
v -27.817368 -1.226678 3.776476
v 27.817368 -1.226678 3.776476
v -27.817368 3.750627 3.776476
v 27.817368 3.750627 3.776476
v -27.817368 3.750627 -1.297341
v 27.817368 3.750627 -1.297341
v -27.817368 -1.226678 -1.297341
v 27.817368 -1.226678 -1.297341
vt 0.175466 0.490137
vt 0.887887 0.602187
vt 0.109486 0.716041
vt 0.823501 0.565135
vt 0.110440 0.804889
vt 0.889795 0.775102
vt 0.111394 0.888350
vt 0.890749 0.863950
vt 0.112348 0.958074
vt 0.891703 0.947411
vt 0.892271 0.494457
vt 0.893225 0.564181
vt 0.105742 0.491091
vt 0.106696 0.560816
vt 0.890749 0.877687
vt 0.822547 0.495411
vt 0.111394 0.874613
vt 0.108532 0.612850
vt 0.889795 0.794226
vt 0.110440 0.785765
vt 0.888841 0.671911
vt 0.888841 0.705378
vt 0.109486 0.682574
vt 0.176420 0.559862
vn 0.000000 0.000000 1.000000
vn 0.000000 0.000000 1.000000
vn 0.000000 0.000000 1.000000
vn 0.000000 0.000000 1.000000
vn 0.000000 1.000000 0.000000
vn 0.000000 1.000000 0.000000
vn 0.000000 1.000000 0.000000
vn 0.000000 1.000000 0.000000
vn 0.000000 0.000000 -1.000000
vn 0.000000 0.000000 -1.000000
vn 0.000000 0.000000 -1.000000
vn 0.000000 0.000000 -1.000000
vn 0.000000 -1.000000 0.000000
vn 0.000000 -1.000000 0.000000
vn 0.000000 -1.000000 0.000000
vn 0.000000 -1.000000 0.000000
vn 1.000000 0.000000 0.000000
vn 1.000000 0.000000 0.000000
vn 1.000000 0.000000 0.000000
vn 1.000000 0.000000 0.000000
vn -1.000000 0.000000 0.000000
vn -1.000000 0.000000 0.000000
vn -1.000000 0.000000 0.000000
vn -1.000000 0.000000 0.000000
s off
g SM_Mur
usemtl lambert3SG
f 1/18/1 2/2/2 4/21/3 3/23/4
f 3/3/5 4/22/6 6/6/7 5/20/8
usemtl displacementShader1SG
f 5/5/9 6/19/10 8/8/11 7/17/12
usemtl lambert3SG
f 7/7/13 8/15/14 2/10/15 1/9/16
f 2/16/17 8/11/18 6/12/19 4/4/20
f 7/13/21 1/1/22 3/24/23 5/14/24
